<svg width="176" height="65" viewBox="0 0 176 65" fill="none" xmlns="http://www.w3.org/2000/svg">
<path fill-rule="evenodd" clip-rule="evenodd" d="M115.055 46.2757V12.1203C115.055 0.52894 127.089 -1.96011 135.679 1.34595V7.83593C129.775 5.40103 123.142 5.96222 123.142 13.5204H132.74V20.0046H123.142V46.1489L115.055 46.2757Z" fill="#FBBA00"/>
<path fill-rule="evenodd" clip-rule="evenodd" d="M153.156 8.45473H159.133L160.36 13.525H167.794V20.0046H161.247V35.1003C161.247 38.124 162.537 39.6374 165.118 39.6405H169.216V46.1212H161.215C155.843 46.1212 153.158 43.2093 153.158 37.3854L153.156 8.45473Z" fill="#FBBA00"/>
<path d="M146.993 13.5227H138.906V46.1166H146.993V13.5227Z" fill="#FBBA00"/>
<path d="M146.993 1.72621H138.906V8.45472H146.993V1.72621Z" fill="#FBBA00"/>
<path fill-rule="evenodd" clip-rule="evenodd" d="M176 46.1258C168.894 57.4672 156.38 64.9989 142.133 64.9989C127.886 64.9989 115.38 57.4672 108.271 46.1247C116.621 53.9099 128.701 58.8004 142.133 58.8004C155.565 58.8004 167.649 53.9064 176 46.1247" fill="#FBBA00"/>
<path d="M0.998396 38.6276V34.175C3.32988 35.1199 6.02149 35.5919 9.07322 35.5912C11.3501 35.5912 12.4885 34.8502 12.4885 33.3683C12.4885 32.0155 11.7178 31.346 10.19 31.346H6.3911C2.13037 31.3444 0 29.1849 0 24.8675C0 20.4272 3.11169 18.207 9.33506 18.207C11.8688 18.1892 14.3878 18.5973 16.7894 19.4146V23.8673C14.4557 22.9212 11.9295 22.4534 9.19389 22.4534C6.32735 22.4534 4.90204 23.192 4.90204 24.6762C4.89749 26.0183 5.73006 26.6901 7.39974 26.6917H10.7888C15.4472 26.6917 17.778 28.8477 17.781 33.1597C17.781 37.6155 14.8116 39.841 8.87286 39.8364C5.95395 39.8364 3.32912 39.4335 0.998396 38.6276ZM21.4763 39.6405V18.4006H25.5746L26.1939 21.0717C28.6006 19.2913 30.9958 18.4006 33.366 18.4006C36.0064 18.4006 37.8795 19.3716 38.9853 21.3137C41.6583 19.3685 44.1673 18.3975 46.5125 18.4006C50.9387 18.4006 53.1514 21.0894 53.1506 26.467V39.6405H47.849V26.2734C47.849 23.9195 46.865 22.7411 44.8971 22.738C43.3215 22.738 41.675 23.6541 39.9575 25.4863V39.6405H34.6672V26.3264C34.6672 23.9303 33.6946 22.7311 31.7494 22.7288C30.0691 22.7288 28.412 23.6449 26.778 25.4771V39.6405H21.4763ZM56.9826 33.0272C56.9826 28.6729 60.0183 26.4965 66.0899 26.4981C67.7246 26.4808 69.3574 26.6142 70.9681 26.8968V25.5024C70.9681 23.6042 69.1493 22.6542 65.5116 22.6527C63.1985 22.6562 60.898 22.9973 58.6811 23.6656V19.4135C60.8987 18.7489 63.1989 18.4094 65.5116 18.4052C72.6806 18.4052 76.2629 20.7368 76.2583 25.3999V39.6405H73.5807L71.3039 38.1425C69.5181 39.1345 67.5122 39.6501 65.4752 39.6405C59.8127 39.6405 56.9826 37.4361 56.9848 33.0272H56.9826ZM70.9715 30.9415C69.6338 30.673 68.0116 30.5428 66.0933 30.5428C63.5456 30.5389 62.2717 31.3437 62.2717 32.9569C62.2717 34.5702 63.3384 35.3803 65.4718 35.3872C67.6257 35.3872 69.4578 34.8349 70.9681 33.7301L70.9715 30.9415ZM81.4165 39.6405V18.4006H85.5148L86.1683 21.1074C88.0118 19.3067 89.9585 18.4044 92.0084 18.4006V22.7288C90.0351 22.7288 88.2706 23.6237 86.7147 25.4137V39.6405H81.4165ZM95.2859 14.9632H99.2021L100.007 18.4006H104.877V22.6481H100.588V32.4153C100.588 34.3966 101.433 35.3884 103.124 35.3907H104.877V39.6405H100.568C97.0467 39.6405 95.2859 37.7311 95.2859 33.9122V14.9632Z" fill="white"/>
</svg>
